<svg xmlns="http://www.w3.org/2000/svg" width="15" height="20" viewBox="0 0 15 20">
  <defs>
    <style>
      .cls-1 {
        fill: #545455;
        fill-rule: evenodd;
      }
    </style>
  </defs>
  <path id="Kształt_27" data-name="Kształt 27" class="cls-1" d="M1396.5,3433a2.514,2.514,0,0,0-2.5,2.5,2.488,2.488,0,0,0,1.67,2.34v10.32a2.488,2.488,0,0,0-1.67,2.34,2.5,2.5,0,1,0,3.39-2.32,2.389,2.389,0,0,1,1.14-1.95,9.719,9.719,0,0,1,3.15-1.09,10.612,10.612,0,0,0,3.73-1.38,4.634,4.634,0,0,0,1.9-3.42,2.5,2.5,0,1,0-1.67-.02,2.583,2.583,0,0,1-1.17,2.08,9.467,9.467,0,0,1-3.15,1.12,10.851,10.851,0,0,0-3.73,1.3c-0.09.06-.17,0.14-0.26,0.21v-7.19a2.488,2.488,0,0,0,1.67-2.34A2.514,2.514,0,0,0,1396.5,3433Zm0,1.67a0.83,0.83,0,1,1-.83.83A0.816,0.816,0,0,1,1396.5,3434.67Zm10,2.5a0.83,0.83,0,1,1-.83.83A0.816,0.816,0,0,1,1406.5,3437.17Zm-10,12.5a0.83,0.83,0,1,1-.83.83A0.816,0.816,0,0,1,1396.5,3449.67Z" transform="translate(-1394 -3433)"/>
</svg>
