<svg xmlns="http://www.w3.org/2000/svg" width="32" height="30.68" viewBox="0 0 32 30.68">
  <defs>
    <style>
      .cls-1 {
        fill: #545455;
        fill-rule: evenodd;
      }
    </style>
  </defs>
  <path id="Kształt_25" data-name="Kształt 25" class="cls-1" d="M1429,3567.42a15.822,15.822,0,0,0-5.8,30.61,1.407,1.407,0,0,0,1.13-1.32v-2.9h-1.73a3.234,3.234,0,0,1-2.87-1.52c-0.13-.26-0.26-0.59-0.4-0.92a3.9,3.9,0,0,0-1.26-1.98,0.971,0.971,0,0,1-.34-0.92,0.936,0.936,0,0,1,1.07-.53,4.073,4.073,0,0,1,2.27,1.58,2.079,2.079,0,0,0,1.73,1.06h0.2a5.968,5.968,0,0,0,2.33-.27h0a6.376,6.376,0,0,1,.54-0.66c-4-.79-6.27-3.1-6.27-6.59a5.943,5.943,0,0,1,1.07-3.44c-0.27-.99-0.87-3.56.4-4.68l0.2-.2h0.26a6.294,6.294,0,0,1,3.8,1.32,10.764,10.764,0,0,1,7.34,0,5.978,5.978,0,0,1,3.8-1.32h0.26l0.2,0.2c1.27,1.19.67,3.69,0.4,4.68a6.5,6.5,0,0,1,1.07,3.44c0,3.49-2.27,5.8-6.2,6.59a6.01,6.01,0,0,1,1.53,3.9v3.23a1.348,1.348,0,0,0,1.14,1.32,16.136,16.136,0,0,0,10.13-14.85A15.96,15.96,0,0,0,1429,3567.42Z" transform="translate(-1413 -3567.41)"/>
</svg>
