<?xml version="1.0" encoding="utf-8"?>
<!-- Generator: Adobe Illustrator 20.0.0, SVG Export Plug-In . SVG Version: 6.00 Build 0)  -->
<svg version="1.1" id="Layer_1" xmlns="http://www.w3.org/2000/svg" xmlns:xlink="http://www.w3.org/1999/xlink" x="0px" y="0px"
	 viewBox="0 0 255 46.3" style="enable-background:new 0 0 255 46.3;" xml:space="preserve">
<style type="text/css">
	.st0{fill:#FCB316;}
	.st1{fill:#010101;}
</style>
<g>
	<g>
		<path class="st0" d="M0,22.1h4.2V0.4H0V22.1z M29.4,16.2c0,0.5-0.1,0.7-0.4,0.7h-0.3c-0.3,0-0.8-0.7-1.8-1.7L17.5,3.4
			c-1.8-2.2-2.7-3-4.1-3h-1.1c-1.9,0-3,1.1-3,3.5v18.3h4.2V6.3c0-0.5,0.1-0.7,0.4-0.7h0.3c0.3,0,0.8,0.7,1.8,1.7l9.5,11.8
			c1.8,2.2,2.7,3,4.1,3h1.1c1.8,0,3-1,3-3.5V0.4h-4.2V16.2z M58,10.8c1.3-0.3,2.6-2.2,2.6-4.2c0-3.7-2-6.2-7.5-6.2H38.7v21.8h15.7
			c4.9,0,7.6-2.3,7.6-6.3C61.9,12.4,59.4,10.9,58,10.8z M42.8,4.1h10c3,0,3.5,1.1,3.5,2.7c0,1.8-0.9,2.6-3.2,2.6H42.8V4.1z
			 M54.1,18.4H42.8v-5.3h11.6c2.5,0,3.2,1,3.2,2.6C57.6,17.3,57,18.4,54.1,18.4z M81.5,9.1h-7.5c-3.6,0-4-1.1-4-1.9
			c0-1.8,2-3.5,7.5-3.5c4.6,0,6.7,1.3,7.5,2.9h4.4C88.3,3.5,84.9,0,77.4,0c-8,0-11.8,3.2-11.8,7.3c0,3.3,2.4,5.5,8.2,5.5h7.6
			c3.8,0,4.5,1.2,4.5,2.4c0,1.9-2,3.7-8.2,3.7c-6,0-7.4-1.8-7.9-3.4h-4.4c0.9,3.8,4,7,12.3,7c8.9,0,12.5-3.5,12.5-7.5
			C90.2,12,88.2,9.1,81.5,9.1z"/>
	</g>
</g>
<g>
	<g>
		<path class="st1" d="M11.3,45.1c-0.1,0.3-0.2,0.4-0.3,0.4h-0.1c-0.2,0-0.2-0.1-0.3-0.3c-0.4-1.4-2.2-7-2.3-7.1
			c-0.2-0.6-0.7-0.7-0.9-0.7c-0.2,0-0.7,0-0.9,0.7c0,0.1-1.8,5.7-2.3,7.1c-0.1,0.3-0.1,0.3-0.3,0.3H3.9c-0.2,0-0.2,0-0.3-0.4
			c-0.1-0.2-2.1-5.9-2.8-7.9H0c0.5,1.4,2.8,7.9,2.9,8.2c0.2,0.6,0.5,0.8,1,0.8h0c0.4,0,0.8-0.2,1-0.8c0.1-0.2,2.2-7,2.3-7.1
			c0-0.1,0.1-0.2,0.2-0.2c0.2,0,0.2,0,0.3,0.2c0,0.1,2.2,6.9,2.3,7.1c0.2,0.6,0.6,0.8,1,0.8h0c0.5,0,0.8-0.2,1-0.8
			c0.1-0.2,2.4-6.8,2.9-8.2h-0.8C13.4,39.2,11.4,44.9,11.3,45.1z M22.4,39.1v5.1c0,1.5,0.6,1.9,1.9,1.9h6.7v-0.7h-6.7
			c-1.1,0-1.3-0.1-1.3-1.2V42h7.5v-0.7h-7.5v-2.2c0-1.1,0.2-1.2,1.3-1.2h6.7v-0.7h-6.7C23,37.2,22.4,37.6,22.4,39.1z M54.4,45.6
			c-3.4,0-4.3-1.2-4.3-4c0-2.7,0.8-4,4.3-4c2.7,0,3.8,0.8,4.1,2.2h0.8c-0.5-2.1-2.2-2.9-4.9-2.9c-4,0-5,1.8-5,4.6
			c0,2.8,0.9,4.6,5,4.6c3.4,0,4.6-1.3,4.9-3h-0.8C58.2,44.9,57,45.6,54.4,45.6z M75.9,40.5V40c0-2.1-1.2-2.8-3.2-2.8h-3.5
			c-1.4,0-2,0.4-2,2v7H68v-2.9h4.8c0.2,0,0.4,0,0.5,0l2.4,2.9h0.9l-2.5-3C75.3,42.8,75.9,42,75.9,40.5z M72.7,42.6H68v-3.5
			c0-1.2,0.3-1.2,1.3-1.2h3.3c1.9,0,2.5,0.6,2.5,2.1v0.6C75.2,42,74.5,42.6,72.7,42.6z M84.2,39.1v5.1c0,1.5,0.6,1.9,1.9,1.9h6.7
			v-0.7h-6.7c-1.1,0-1.3-0.1-1.3-1.2V42h7.5v-0.7H85v-2.2c0-1.1,0.2-1.2,1.3-1.2h6.7v-0.7h-6.7C84.8,37.2,84.2,37.6,84.2,39.1z
			 M105.4,37.2c-0.5,0-0.9,0.2-1.3,0.9c0,0-3.6,7.3-4,8.1h0.8l1.1-2.3h6.7l1.1,2.3h0.8c-0.4-0.8-4-8.1-4-8.1
			C106.3,37.3,106,37.2,105.4,37.2z M102.4,43.2c0.4-0.8,2.4-4.8,2.4-4.9c0.2-0.5,0.3-0.5,0.6-0.5c0.3,0,0.4,0,0.6,0.5
			c0,0,2,4.1,2.4,4.9H102.4z M115.9,37.9h4.5v8.3h0.7v-8.3h4.6v-0.7h-9.8V37.9z M133.4,39.1v5.1c0,1.5,0.6,1.9,1.9,1.9h6.7v-0.7
			h-6.7c-1.1,0-1.3-0.1-1.3-1.2V42h7.5v-0.7h-7.5v-2.2c0-1.1,0.2-1.2,1.3-1.2h6.7v-0.7h-6.7C134,37.2,133.4,37.6,133.4,39.1z
			 M160.8,39.1v7h0.7V42h7.3v-0.7h-7.3v-2.2c0-1.1,0.2-1.2,1.3-1.2h6.4v-0.7h-6.5C161.4,37.2,160.8,37.6,160.8,39.1z M185.6,41.7
			c0,2.6-0.3,4-3.9,4c-3.6,0-3.8-1.4-3.8-4v-4.5h-0.7v4.5c0,2.8,0.4,4.6,4.6,4.6c4.2,0,4.6-1.9,4.6-4.6v-4.5h-0.7V41.7z M194.1,37.9
			h4.5v8.3h0.7v-8.3h4.6v-0.7h-9.8V37.9z M220.2,41.7c0,2.6-0.3,4-3.9,4c-3.6,0-3.8-1.4-3.8-4v-4.5h-0.7v4.5c0,2.8,0.4,4.6,4.6,4.6
			c4.2,0,4.6-1.9,4.6-4.6v-4.5h-0.7V41.7z M238,40.5V40c0-2.1-1.2-2.8-3.2-2.8h-3.5c-1.4,0-2,0.4-2,2v7h0.7v-2.9h4.8
			c0.2,0,0.4,0,0.5,0l2.4,2.9h0.9l-2.5-3C237.3,42.8,238,42,238,40.5z M234.7,42.6h-4.7v-3.5c0-1.2,0.3-1.2,1.3-1.2h3.3
			c1.9,0,2.5,0.6,2.5,2.1v0.6C237.3,42,236.6,42.6,234.7,42.6z M248.3,37.9h6.7v-0.7h-6.7c-1.4,0-1.9,0.4-1.9,1.9v5.1
			c0,1.5,0.6,1.9,1.9,1.9h6.7v-0.7h-6.7c-1.1,0-1.3-0.1-1.3-1.2V42h7.5v-0.7H247v-2.2C247,38,247.3,37.9,248.3,37.9z"/>
	</g>
</g>
<path class="st1" d="M94.1,22.5c0.8,0,1.4-0.6,1.4-1.4c0-0.8-0.6-1.4-1.4-1.4c-0.8,0-1.4,0.6-1.4,1.4C92.8,21.9,93.4,22.5,94.1,22.5
	z"/>
<path class="st1" d="M107.6,22.4c5.3,0,8.8-1.8,8.8-5.3c0-1.6-0.7-4-5.8-4h-5.8c-3.3,0-3.9-0.9-3.9-2.1c0-1.6,1.4-3.5,6.7-3.5
	c3.4,0,5.5,1.1,6.3,2.8h1.8c-0.8-2.6-3.7-4.4-8.1-4.4c-7.2,0-8.4,3.4-8.4,5c0,3,2.1,3.9,5.6,3.9h5.7c2.5,0,4.2,0.7,4.2,2.5
	c0,2.4-3,3.6-7.1,3.6c-4.7,0-6.3-1.6-6.8-3h-1.8C99.6,19.8,101.5,22.4,107.6,22.4z"/>
<path class="st1" d="M130.1,20.7h-2.1c-4.9,0-6.2-2.4-6.2-6.7c0-4.3,1.3-6.7,6.2-6.7h2.1c4.9,0,6.2,2.4,6.2,6.7
	C136.3,18.4,135.1,20.7,130.1,20.7z M130.1,5.8h-2.1c-6.6,0-7.9,3.9-7.9,8.3c0,4.3,1.3,8.3,7.9,8.3h2.1c6.6,0,7.9-3.9,7.9-8.3
	C138,9.7,136.7,5.8,130.1,5.8z"/>
<path class="st1" d="M151.2,2h3V0.4h-3c-4.3,0-7.1,1.1-7.3,5.6h-3.4v1.6h3.3v14.5h1.7V7.6h7.8V6h-7.8C145.7,2.9,147.3,2,151.2,2z"/>
<path class="st1" d="M166.2,20.5c-4.1,0-5.7-1-5.7-4.7V7.6h7.4V6h-7.4V0.4h-1.7V6h-3.2v1.6h3.2v8.2c0,5.1,2.8,6.3,7.3,6.3h2.8v-1.6
	H166.2z"/>
<path class="st1" d="M199.7,6h-1.8c0,0-4.1,11.1-4.8,13c-0.5,1.2-0.6,1.4-1,1.4c0,0-0.1,0-0.2,0c-0.5,0-0.6-0.2-0.9-1.3
	c-0.9-2.8-3.7-11.2-3.7-11.4c-0.4-1.3-1.3-1.3-2.1-1.3c-0.7,0-1.6,0-2.1,1.3c-0.1,0.2-2.8,8.6-3.7,11.4c-0.3,1.1-0.5,1.3-0.9,1.3
	h-0.2c-0.4,0-0.5-0.2-1-1.4c-0.7-1.9-4.8-13-4.8-13h-1.8c0,0,5.2,14.1,5.3,14.4c0.6,1.5,1.5,1.7,2.1,1.7c0.1,0,0.6,0,0.8,0
	c0.6,0,1.4-0.4,1.8-1.7c0.2-0.5,3.3-10,3.7-11.5c0.3-0.9,0.4-0.9,0.7-0.9c0.4,0,0.4,0,0.7,0.9c0.5,1.4,3.6,11,3.7,11.5
	c0.4,1.3,1.2,1.7,1.8,1.7c0.1,0,0.7,0,0.8,0c0.6,0,1.5-0.2,2.1-1.7C194.4,20.2,199.7,6,199.7,6z"/>
<path class="st1" d="M217,17.7c0,2-0.4,2.8-3,2.8h-4.5c-5.1,0-6.2-1.1-6.2-3.7c0-3.1,3-3.3,6.2-3.3h7.4c0,0.2,0,1.1,0,2
	C217,16.4,217,17.3,217,17.7z M216.9,12h-7.3c-2.8,0-7.9,0-7.9,4.8c0,4.8,3.8,5.3,7.9,5.3h4.5c2.8,0,4.6-1,4.6-4.5v-3.4
	c0-5.2-2-8.5-9.3-8.5c-2.4,0-4.5,0.4-6.2,1.3v1.8c1.5-0.9,3.9-1.5,6.2-1.5C214.8,7.4,216.3,9.1,216.9,12z"/>
<path class="st1" d="M233.8,6h-5c-3,0-4.9,1.9-4.9,4.8v11.4h1.7V10.7c0-1.6,0.9-3,3.2-3h5V6z"/>
<path class="st1" d="M245.2,7.4c5.6,0,7.1,2.2,7.1,5.8H238C238.2,9.7,239.1,7.4,245.2,7.4z M252.1,17.4c-0.7,2-2.4,3.3-6.9,3.3
	c-6.2,0-7.1-2.5-7.2-5.9h16v-0.8c0-4.1-0.8-8.3-8.9-8.3c-6.9,0-8.9,2.8-8.9,8.3c0,5,1.5,8.3,8.9,8.3c5.5,0,8-1.9,8.8-4.9H252.1z"/>
</svg>
