<svg xmlns="http://www.w3.org/2000/svg" xmlns:xlink="http://www.w3.org/1999/xlink" viewBox="0 0 379.57 376.35"><defs><style>.cls-1{fill:#fff;}.cls-2{fill:url(#Gradient_bez_nazwy_69);}.cls-3{fill:url(#Gradient_bez_nazwy_68);}.cls-4{fill:url(#Gradient_bez_nazwy_70);}</style><linearGradient id="Gradient_bez_nazwy_69" x1="239.22" y1="265.46" x2="239.22" y2="116.38" gradientUnits="userSpaceOnUse"><stop offset="0" stop-color="#007aba"/><stop offset="1" stop-color="#00aeef"/></linearGradient><linearGradient id="Gradient_bez_nazwy_68" x1="238.93" y1="182.98" x2="120.93" y2="182.98" gradientUnits="userSpaceOnUse"><stop offset="0" stop-color="#007aba"/><stop offset="0.52" stop-color="#0097d8"/><stop offset="1" stop-color="#00aeef"/></linearGradient><linearGradient id="Gradient_bez_nazwy_70" x1="176.64" y1="147.29" x2="176.64" y2="265.48" gradientUnits="userSpaceOnUse"><stop offset="0" stop-color="#007aba"/><stop offset="0.31" stop-color="#0086c6"/><stop offset="0.86" stop-color="#00a5e6"/><stop offset="1" stop-color="#00aeef"/></linearGradient></defs><title>antares_logo_when_blueBG_solo</title><g id="Warstwa_2" data-name="Warstwa 2"><g id="Warstwa_1-2" data-name="Warstwa 1"><path class="cls-1" d="M379.57,202.48c0,88.35-10.27,173.87-123.2,173.87-59.49,0-218.06-52.82-251.32-191.48C-21.18,75.53,57.26,0,182.45,0S379.57,90.65,379.57,202.48Z"/><path class="cls-2" d="M238.93,249.46a16,16,0,1,0,32,0v-59a75.13,75.13,0,0,0-59.67-73.42q-1.86-.39-3.76-.68c.45.43.92.86,1.36,1.3a102.15,102.15,0,0,1,30.07,72.4c0,.09,0,.18,0,.27s0,.09,0,.13v55.6"/><path class="cls-3" d="M151,250.47A60.1,60.1,0,0,1,192.9,147.29a60.72,60.72,0,0,1,6.5.36,42.9,42.9,0,0,1,39.52,42.69c0-.09,0-.18,0-.27a102.15,102.15,0,0,0-30.07-72.4c-.44-.44-.91-.86-1.36-1.3A75,75,0,0,0,151,250.47Z"/><path class="cls-4" d="M204.51,265.48c.46,0,.89-.09,1.33-.12a16.06,16.06,0,0,0,14.67-15.87c0-.27-.07-.52-.08-.79a16,16,0,0,0-15.92-15.21h-8.58a43.06,43.06,0,0,1-42.73-38.3c0-.42-.07-.84-.1-1.25q-.07-1.11-.11-2.23c0-.41-.06-.8-.06-1.21,0-.14,0-.27,0-.41a43,43,0,0,1,43-42.6c1.17,0,2.33.08,3.48.18a60,60,0,0,0-66.63,59.77,59.92,59.92,0,0,0,18.19,43,74.61,74.61,0,0,0,45,15Z"/></g></g></svg>